<svg width="158" height="158" viewBox="0 0 158 158" fill="none" xmlns="http://www.w3.org/2000/svg">
<path d="M83.4375 83.9375L83.4375 84.4375L83.9375 84.4375L123.437 84.4375L123.438 84.4375C124.316 84.4368 125.175 84.6967 125.905 85.1843C126.635 85.6718 127.205 86.3651 127.541 87.1764C127.877 87.9877 127.965 88.8804 127.793 89.7417C127.622 90.6029 127.199 91.3939 126.577 92.0145L126.577 92.0147L82.1397 136.452L82.1395 136.452C81.7274 136.865 81.238 137.192 80.6993 137.416C80.1606 137.639 79.5831 137.754 79 137.754C78.4168 137.754 77.8394 137.639 77.3007 137.416C76.762 137.192 76.2726 136.865 75.8605 136.452L75.8603 136.452L31.4228 92.0148L31.4226 92.0146C30.8013 91.3939 30.3781 90.6029 30.2066 89.7417C30.035 88.8804 30.1229 87.9877 30.4591 87.1764C30.7952 86.3651 31.3645 85.6718 32.0949 85.1843C32.8253 84.6967 33.6839 84.4368 34.5621 84.4375L34.5625 84.4375L74.0625 84.4375L74.5625 84.4375L74.5625 83.9375L74.5625 24.6875C74.5625 23.5106 75.03 22.3819 75.8622 21.5497C76.6944 20.7175 77.8231 20.25 79 20.25C80.1769 20.25 81.3056 20.7175 82.1378 21.5497C82.97 22.3819 83.4375 23.5106 83.4375 24.6875L83.4375 83.9375Z" fill="#FC531C" stroke="black"/>
</svg>
