<svg width="23" height="23" viewBox="0 0 23 23" fill="none" xmlns="http://www.w3.org/2000/svg">
<path d="M11.5 2.33594C9.68752 2.33594 7.91575 2.8734 6.40872 3.88036C4.9017 4.88732 3.72712 6.31855 3.03351 7.99306C2.33991 9.66758 2.15843 11.5102 2.51203 13.2878C2.86562 15.0655 3.73842 16.6984 5.02003 17.98C6.30165 19.2616 7.93453 20.1344 9.71218 20.488C11.4898 20.8416 13.3324 20.6601 15.0069 19.9665C16.6815 19.2729 18.1127 18.0983 19.1196 16.5913C20.1266 15.0843 20.6641 13.3125 20.6641 11.5C20.6612 9.07041 19.6948 6.74116 17.9768 5.02318C16.2588 3.3052 13.9296 2.33879 11.5 2.33594ZM11.5 19.5859C9.90076 19.5859 8.33742 19.1117 7.0077 18.2232C5.67797 17.3347 4.64158 16.0719 4.02957 14.5944C3.41757 13.1168 3.25744 11.491 3.56944 9.92251C3.88143 8.35399 4.65154 6.91322 5.78238 5.78238C6.91322 4.65154 8.354 3.88143 9.92252 3.56943C11.491 3.25743 13.1168 3.41756 14.5944 4.02957C16.0719 4.64157 17.3347 5.67797 18.2232 7.00769C19.1117 8.33742 19.5859 9.90075 19.5859 11.5C19.5836 13.6438 18.7309 15.6991 17.215 17.215C15.6991 18.7309 13.6438 19.5836 11.5 19.5859ZM8.44532 11.5C8.44532 12.1411 8.64704 12.766 9.02191 13.2861C9.39678 13.8062 9.9258 14.1952 10.534 14.3979C11.1423 14.6007 11.7988 14.6069 12.4108 14.4157C13.0228 14.2246 13.5591 13.8457 13.9438 13.3328C14.0297 13.2184 14.1575 13.1429 14.2991 13.1227C14.4407 13.1026 14.5845 13.1395 14.6989 13.2254C14.8133 13.3113 14.8888 13.4392 14.909 13.5808C14.9291 13.7224 14.8922 13.8662 14.8063 13.9806C14.2857 14.6743 13.5601 15.1866 12.7321 15.4451C11.9042 15.7035 11.016 15.6949 10.1932 15.4206C9.37047 15.1462 8.65488 14.6199 8.1478 13.9163C7.64073 13.2126 7.36786 12.3673 7.36786 11.5C7.36786 10.6327 7.64073 9.78736 8.1478 9.08373C8.65488 8.3801 9.37047 7.85383 10.1932 7.57945C11.016 7.30507 11.9042 7.29649 12.7321 7.55492C13.5601 7.81336 14.2857 8.32571 14.8063 9.01941C14.8922 9.13379 14.9291 9.2776 14.909 9.41922C14.8888 9.56083 14.8133 9.68865 14.6989 9.77455C14.5845 9.86045 14.4407 9.8974 14.2991 9.87726C14.1575 9.85713 14.0297 9.78156 13.9438 9.66719C13.5591 9.15429 13.0228 8.77542 12.4108 8.58426C11.7988 8.3931 11.1423 8.39933 10.534 8.60207C9.9258 8.80481 9.39678 9.19378 9.02191 9.71389C8.64704 10.234 8.44532 10.8589 8.44532 11.5Z" fill="#606060"/>
</svg>
