<svg width="76" height="74" viewBox="0 0 76 74" fill="none" xmlns="http://www.w3.org/2000/svg">
<path fill-rule="evenodd" clip-rule="evenodd" d="M41.27 11.6069L76.0001 40.8943H65.021V67.8789H18.1004V40.8943H6.91333L41.27 11.6069ZM41.275 13.987L11.9948 38.947H19.7143V65.9316H63.407V38.947H70.8735L41.275 13.987Z" fill="black"/>
<path fill-rule="evenodd" clip-rule="evenodd" d="M0.685054 40.6015L45.4309 4.1862L45.6887 4.64746L0.942918 41.0628L0.685054 40.6015Z" fill="black"/>
<path fill-rule="evenodd" clip-rule="evenodd" d="M41.2727 73.999L41.2727 -1.18963e-07L41.7339 0L41.7339 73.999L41.2727 73.999Z" fill="black"/>
<path fill-rule="evenodd" clip-rule="evenodd" d="M0.00132361 46.1786H16.1411V46.7358H0.00132361V46.1786Z" fill="black"/>
<path fill-rule="evenodd" clip-rule="evenodd" d="M5.64986 33.3831L5.64986 74H5.18872L5.18872 33.3831H5.64986Z" fill="black"/>
<path fill-rule="evenodd" clip-rule="evenodd" d="M12.2204 43.3979L12.2204 73.999H11.7593L11.7593 43.3979H12.2204Z" fill="black"/>
<path fill-rule="evenodd" clip-rule="evenodd" d="M0.00234024 71.0761L45.1943 71.3587L45.1919 71.915L-5.21308e-05 71.6325L0.00234024 71.0761Z" fill="black"/>
<path d="M43.3489 63.4274V18.3604L66.1751 37.6939H61.127V63.4274H43.3489Z" fill="#FC531C"/>
</svg>
