<svg width="119" height="126" viewBox="0 0 119 126" fill="none" xmlns="http://www.w3.org/2000/svg">
<path fill-rule="evenodd" clip-rule="evenodd" d="M55.17 7.72659C62.6699 15.2265 53.9194 32.9033 64.5355 36.3552C75.3915 39.885 82.2908 21.6241 93.7533 20.2721C102.635 19.2245 114.076 22.9154 118.016 30.0472C121.969 37.204 112.799 45.1922 111.899 53.1204C111.165 59.5852 119.902 69.7659 113.205 72.4119C100.451 77.4515 85.2701 65.5116 71.8536 68.9437C66.801 70.2363 73.1453 78.1489 72.6438 82.788C71.5054 93.3186 73.5348 105.002 66.9986 113.854C61.5629 121.216 50.6811 126.734 40.7962 125.92C31.252 125.135 26.003 115.452 18.7648 109.883C12.3203 104.925 -1.39109 102.067 0.114626 94.6227C2.71146 81.7841 18.2242 74.4694 27.9137 64.6513C30.939 61.5859 36.7481 60.3063 37.8773 56.3588C38.7763 53.2161 31.9234 51.0353 32.7142 47.8698C33.3939 45.1491 41.0614 46.7612 40.9708 43.9758C40.5135 29.9298 26.056 16.3501 31.2559 3.07532C33.9552 -3.81564 49.7108 2.2674 55.17 7.72659Z" fill="#FC531C"/>
</svg>
